<?xml version="1.0" encoding="UTF-8"?>
<svg id="Layer_2" data-name="Layer 2" xmlns="http://www.w3.org/2000/svg" viewBox="0 0 321.03 311.73">
  <defs>
    <style>
      .cls-1 {
        fill: #00275a;
      }

      .cls-2 {
        fill: #00adef;
      }

      .cls-3 {
        fill: #f7cf46;
      }
    </style>
  </defs>
  <g id="Layer_1-2" data-name="Layer 1">
    <g>
      <path class="cls-1" d="M321.03,150c0,5.87-4.75,10.63-10.62,10.63-25.56,0-46.02,2.24-62.57,6.84-16.26,4.53-28.83,11.38-38.4,20.95-9.56,9.56-16.41,22.13-20.94,38.4-4.6,16.54-6.84,37-6.84,62.56,0,5.87-4.76,10.62-10.63,10.62s-10.62-4.75-10.62-10.62c0-25.56-2.24-46.02-6.85-62.56-.08-.29-.16-.58-.24-.86v-.02c-4.53-15.85-11.31-28.13-20.7-37.52-9.56-9.57-22.13-16.42-38.4-20.95-.37-.1-.74-.2-1.13-.31-16.34-4.38-36.45-6.53-61.43-6.53-5.88,0-10.63-4.76-10.63-10.63s4.75-10.62,10.63-10.62c25.55,0,46.02-2.24,62.56-6.84,16.27-4.53,28.84-11.38,38.4-20.95,9.56-9.56,16.42-22.13,20.94-38.4,4.61-16.54,6.85-37.01,6.85-62.56,0-5.88,4.76-10.63,10.62-10.63s10.63,4.75,10.63,10.63c0,25.55,2.24,46.02,6.84,62.56,2.91,10.46,6.78,19.37,11.71,26.96,2.74,4.22,5.81,8.02,9.23,11.44,5.59,5.59,12.22,10.27,20.01,14.08,5.53,2.7,11.65,4.99,18.39,6.87,16.55,4.6,37.01,6.84,62.57,6.84,5.87,0,10.62,4.76,10.62,10.62Z"/>
      <path class="cls-2" d="M127.73,247.87c0,2.5-2.02,4.53-4.52,4.53-10.88,0-19.59.95-26.64,2.91-6.92,1.93-12.27,4.85-16.35,8.92-4.07,4.07-6.99,9.42-8.92,16.35-1.96,7.04-2.91,15.75-2.91,26.64,0,2.5-2.03,4.52-4.53,4.52s-4.52-2.02-4.52-4.52c0-10.88-.95-19.59-2.92-26.64-.03-.12-.07-.25-.1-.37h0c-1.93-6.76-4.82-11.98-8.81-15.98-4.07-4.07-9.42-6.99-16.35-8.92-.16-.04-.32-.09-.48-.13-6.96-1.86-15.52-2.78-26.15-2.78-2.5,0-4.53-2.03-4.53-4.53s2.02-4.52,4.53-4.52c10.88,0,19.59-.95,26.64-2.91,6.93-1.93,12.28-4.85,16.35-8.92,4.07-4.07,6.99-9.42,8.92-16.35,1.96-7.04,2.92-15.76,2.92-26.64,0-2.5,2.03-4.53,4.52-4.53s4.53,2.02,4.53,4.53c0,10.88.95,19.59,2.91,26.64,1.24,4.45,2.89,8.25,4.99,11.48,1.17,1.8,2.47,3.41,3.93,4.87,2.38,2.38,5.2,4.37,8.52,5.99,2.35,1.15,4.96,2.12,7.83,2.92,7.05,1.96,15.76,2.91,26.64,2.91,2.5,0,4.52,2.03,4.52,4.52Z"/>
      <path class="cls-3" d="M296.59,59c0,1.48-1.2,2.68-2.68,2.68-6.44,0-11.6.56-15.77,1.72-4.1,1.14-7.27,2.87-9.68,5.28s-4.14,5.58-5.28,9.68c-1.16,4.17-1.72,9.33-1.72,15.77,0,1.48-1.2,2.68-2.68,2.68s-2.68-1.2-2.68-2.68c0-6.44-.56-11.6-1.72-15.77-.02-.07-.04-.14-.06-.22h0c-1.14-4-2.85-7.09-5.22-9.46-2.41-2.41-5.58-4.14-9.68-5.28-.09-.03-.19-.05-.28-.08-4.12-1.11-9.19-1.65-15.48-1.65-1.48,0-2.68-1.2-2.68-2.68s1.2-2.68,2.68-2.68c6.44,0,11.6-.56,15.77-1.72,4.1-1.14,7.27-2.87,9.68-5.28s4.14-5.58,5.28-9.68c1.16-4.17,1.72-9.33,1.72-15.77,0-1.48,1.2-2.68,2.68-2.68s2.68,1.2,2.68,2.68c0,6.44.57,11.6,1.72,15.77.73,2.63,1.71,4.88,2.95,6.79.69,1.06,1.46,2.02,2.33,2.88,1.41,1.41,3.08,2.59,5.04,3.55,1.39.68,2.93,1.26,4.63,1.73,4.17,1.16,9.33,1.72,15.77,1.72,1.48,0,2.68,1.2,2.68,2.68Z"/>
    </g>
  </g>
</svg>